<svg xmlns="http://www.w3.org/2000/svg" width="296.683" height="233.486" viewBox="0 0 296.683 233.486">
  <g id="hearts" transform="translate(6 6.023)">
    <path id="合体_5" data-name="合体 5" d="M98.422,177.171v-.006a18.382,18.382,0,0,1-12.984-5.543l-68-68.941a61.551,61.551,0,0,1,0-85.849l2.4-2.309C42.7-8.719,78.294-1.327,99.789,17.5c21.816-18.752,55.393-25.755,77.93-2.972a64.7,64.7,0,0,1,0,90.339l-66.112,66.76a18.429,18.429,0,0,1-13.161,5.549Z" transform="translate(0 44.292)" fill="none" stroke="#fff" stroke-width="12"/>
    <path id="合体_6" data-name="合体 6" d="M98.422,177.171v-.006a18.382,18.382,0,0,1-12.984-5.543l-68-68.941a61.551,61.551,0,0,1,0-85.849l2.4-2.309C42.7-8.719,78.294-1.327,99.789,17.5c21.816-18.752,55.393-25.755,77.93-2.972a64.7,64.7,0,0,1,0,90.339l-66.112,66.76a18.429,18.429,0,0,1-13.161,5.549Z" transform="translate(88.585 0)" fill="none" stroke="#fff" stroke-width="12"/>
  </g>
</svg>
