<svg id="mega" xmlns="http://www.w3.org/2000/svg" width="202.965" height="227.337" viewBox="0 0 202.965 227.337">
  <path id="パス_1015" data-name="パス 1015" d="M51.754,81.108l-4.5,25.075L71.27,94.16a8.256,8.256,0,0,1,7.388,0l23.913,12L98.184,81.108a8.033,8.033,0,0,1,2.46-7.352l18.975-17.67-26.5-3.649A8.186,8.186,0,0,1,86.961,48.1L75.045,25.019V25L62.987,48.1a8.187,8.187,0,0,1-6.153,4.342L30.391,56.087,49.312,73.739a8.04,8.04,0,0,1,2.442,7.37Z" transform="translate(26.518 31.831)" fill="#fff"/>
  <path id="パス_1016" data-name="パス 1016" d="M93.2,164.957A77.122,77.122,0,1,0,16.07,87.84,77.121,77.121,0,0,0,93.2,164.957ZM40.808,71.867a8.1,8.1,0,0,1,6.677-5.612l26.452-3.676L85.907,39.485a8.228,8.228,0,0,1,14.58,0L112.4,62.561l26.5,3.694a8.1,8.1,0,0,1,6.677,5.612,8,8,0,0,1-2.211,8.355L124.4,97.892l4.52,25.04a8.046,8.046,0,0,1-3.143,7.911,8.173,8.173,0,0,1-8.613.755l-23.895-12-24.018,12a8.188,8.188,0,0,1-8.622-.755,8.033,8.033,0,0,1-3.134-7.911l4.493-25.075L43.01,80.223a8.02,8.02,0,0,1-2.2-8.355Z" transform="translate(8.286 13.642)" fill="#fff"/>
  <path id="パス_1017" data-name="パス 1017" d="M106.838,202.955A101.478,101.478,0,1,0,5.355,101.481,101.481,101.481,0,0,0,106.838,202.955Zm0-186.714A85.241,85.241,0,1,1,21.6,101.481,85.24,85.24,0,0,1,106.838,16.24Z" transform="translate(-5.355 0.001)" fill="#fff"/>
  <path id="パス_1018" data-name="パス 1018" d="M105.424,127.865A109.726,109.726,0,0,1,6.465,65.355a101.545,101.545,0,0,0,197.919,0,109.729,109.729,0,0,1-98.959,62.51Z" transform="translate(-3.942 83.205)" fill="#fff"/>
</svg>
