<svg id="fav" xmlns="http://www.w3.org/2000/svg" width="227.681" height="221.06" viewBox="0 0 227.681 221.06">
  <path id="パス_96" data-name="パス 96" d="M63,138.023a6.74,6.74,0,0,1-5.95-7.363l6.369-70.239L17.682,7.484A6.836,6.836,0,0,1,16.322.906a6.7,6.7,0,0,1,4.9-4.525L88.774-19.194l35.4-60.577a6.6,6.6,0,0,1,5.663-3.243,6.6,6.6,0,0,1,5.663,3.243l35.4,60.577L238.448-3.619a6.7,6.7,0,0,1,4.9,4.525,6.835,6.835,0,0,1-1.36,6.578L196.259,60.421l6.369,70.239a6.839,6.839,0,0,1-2.733,6.042,6.548,6.548,0,0,1-6.473.745L129.838,109.6,66.254,137.447a6.48,6.48,0,0,1-3.256.575Zm8.213-17.459,55.934-24.521a6.533,6.533,0,0,1,5.244,0l56.077,24.521L182.8,58.825v.013a6.771,6.771,0,0,1,1.556-5.192L224.573,7.064,165.094-6.5v-.013a6.631,6.631,0,0,1-4.25-3.165L129.836-63.045,98.685-9.676A6.662,6.662,0,0,1,94.435-6.5L34.956,7.064,75.315,53.647a6.8,6.8,0,0,1,1.556,5.192l-5.663,61.739Z" transform="translate(-15.996 83.015)" fill="#fff"/>
</svg>
