<svg xmlns="http://www.w3.org/2000/svg" width="28.732" height="32.182" viewBox="0 0 28.732 32.182">
  <g id="グループ_963" data-name="グループ 963" transform="translate(304 4431)">
    <path id="前面オブジェクトで型抜き_1" data-name="前面オブジェクトで型抜き 1" d="M10.918,21.835A10.917,10.917,0,0,1,3.2,3.2a10.918,10.918,0,1,1,15.44,15.44A10.847,10.847,0,0,1,10.918,21.835ZM8.049,5.552a3.049,3.049,0,0,0-2.238.932l-.153.148a3.985,3.985,0,0,0,0,5.511l4.315,4.424a1.145,1.145,0,0,0,1.66,0l4.195-4.285a4.189,4.189,0,0,0,0-5.8,2.985,2.985,0,0,0-2.179-.918,4.327,4.327,0,0,0-2.766,1.109A4.422,4.422,0,0,0,8.049,5.552Z" transform="translate(-300.552 -4427.552)" fill="#fa4878"/>
    <g id="mega" transform="translate(-304 -4431)">
      <path id="パス_1017" data-name="パス 1017" d="M19.721,28.729A14.365,14.365,0,1,0,5.355,14.365,14.366,14.366,0,0,0,19.721,28.729Zm0-26.431A12.067,12.067,0,1,1,7.654,14.365,12.067,12.067,0,0,1,19.721,2.3Z" transform="translate(-5.355 0.001)" fill="#fa4878"/>
      <path id="パス_1018" data-name="パス 1018" d="M20.474,74.2A15.533,15.533,0,0,1,6.465,65.355a14.375,14.375,0,0,0,28.017,0A15.533,15.533,0,0,1,20.474,74.2Z" transform="translate(-6.108 -44.325)" fill="#fa4878"/>
    </g>
  </g>
</svg>
