<?xml version="1.0" encoding="utf-8"?>
<svg xml:space="preserve" viewBox="0 0 100 100" y="0" x="0" xmlns="http://www.w3.org/2000/svg" id="圖層_1" version="1.1" style="height: 100%; width: 100%; background: rgb(255, 255, 255) none repeat scroll 0% 0%; shape-rendering: auto; animation-play-state: running; animation-delay: 0s;" width="47px" height="47px"><g style="transform-origin: 50% 50% 0px; transform: rotate(0deg) scale(0.8); animation-play-state: running; animation-delay: 0s;" class="ldl-scale"><g class="ldl-ani" style=""><g class="ldl-layer" style="animation-play-state: running; animation-delay: 0s;"><g class="ldl-ani" style=""><g style="animation-play-state: running; animation-delay: 0s;"><g class="ldl-layer" style="animation-play-state: running; animation-delay: 0s;"><g class="ldl-ani" style="transform-origin: 50px 50px 0px; transform: rotate(0deg); animation: 1.11111s linear -0.648148s infinite normal forwards running spin-5a0a36df-30ea-425e-a2d5-923adad0c22b;"><path fill="#f47e60" d="M71.1 86.7l-3-5.2C79.8 74.9 87 62.5 87 49.2c0-13-7-25.2-18.2-31.9l3.1-5.2C84.9 19.8 93 34 93 49.1c0 15.6-8.4 29.9-21.9 37.6z" style="fill: rgb(250, 72, 120); animation-play-state: running; animation-delay: 0s;"></path></g></g></g></g></g><g class="ldl-layer" style="animation-play-state: running; animation-delay: 0s;"><g class="ldl-ani" style=""><g style="animation-play-state: running; animation-delay: 0s;"><g class="ldl-layer" style="animation-play-state: running; animation-delay: 0s;"><g class="ldl-ani" style="transform-origin: 50px 50px 0px; transform: rotate(0deg); animation: 1.11111s linear -0.740741s infinite normal forwards running spin-5a0a36df-30ea-425e-a2d5-923adad0c22b;"><path fill="#f47e60" d="M28.9 86.7C15.4 79 7 64.7 7 49.2c0-15.1 8.1-29.3 21.1-37l3.1 5.2C20 24 13 36.2 13 49.2c0 13.3 7.2 25.7 18.8 32.2l-2.9 5.3z" style="fill: rgb(250, 72, 120); animation-play-state: running; animation-delay: 0s;"></path></g></g></g></g></g><g class="ldl-layer" style="animation-play-state: running; animation-delay: 0s;"><g class="ldl-ani" style=""><g style="animation-play-state: running; animation-delay: 0s;"><g class="ldl-layer" style="animation-play-state: running; animation-delay: 0s;"><g class="ldl-ani" style="transform-origin: 50px 50px 0px; transform: rotate(0deg); animation: 1.11111s linear -0.833333s infinite normal forwards running spin-5a0a36df-30ea-425e-a2d5-923adad0c22b;"><path fill="#e15b64" d="M63.6 73.7l-2.9-5.2c7-3.9 11.3-11.3 11.3-19.2 0-7.8-4-14.9-10.7-18.9l3.1-5.1c8.4 5 13.6 14.2 13.6 24 0 10.1-5.5 19.4-14.4 24.4z" style="fill: rgb(250, 72, 120); animation-play-state: running; animation-delay: 0s;"></path></g></g></g></g></g><g class="ldl-layer" style="animation-play-state: running; animation-delay: 0s;"><g class="ldl-ani" style=""><g style="animation-play-state: running; animation-delay: 0s;"><g class="ldl-layer" style="animation-play-state: running; animation-delay: 0s;"><g class="ldl-ani" style="transform-origin: 50px 50px 0px; transform: rotate(0deg); animation: 1.11111s linear -0.925926s infinite normal forwards running spin-5a0a36df-30ea-425e-a2d5-923adad0c22b;"><path fill="#e15b64" d="M36.4 73.7C27.5 68.7 22 59.4 22 49.2c0-9.8 5.2-19 13.6-24l3.1 5.1C32 34.4 28 41.4 28 49.2c0 8 4.3 15.3 11.3 19.2l-2.9 5.3z" style="fill: rgb(250, 72, 120); animation-play-state: running; animation-delay: 0s;"></path></g></g></g></g></g><g class="ldl-layer" style="animation-play-state: running; animation-delay: 0s;"><g class="ldl-ani" style=""><g style="animation-play-state: running; animation-delay: 0s;"><g class="ldl-layer" style="animation-play-state: running; animation-delay: 0s;"><g class="ldl-ani" style="transform-origin: 50px 50px 0px; transform: rotate(0deg); animation: 1.11111s linear -1.01852s infinite normal forwards running spin-5a0a36df-30ea-425e-a2d5-923adad0c22b;"><path fill="#333" d="M55.5 90.8h-11c-2.3 0-4.1-2.1-3.6-4.4l6.3-30.6h5.7l6.3 30.6c.4 2.2-1.4 4.4-3.7 4.4z" style="fill: rgb(250, 72, 120); animation-play-state: running; animation-delay: 0s;"></path></g></g><g class="ldl-layer" style="animation-play-state: running; animation-delay: 0s;"><g class="ldl-ani" style="transform-origin: 50px 50px 0px; transform: rotate(0deg); animation: 1.11111s linear -1.11111s infinite normal forwards running spin-5a0a36df-30ea-425e-a2d5-923adad0c22b;"><circle fill="#333" r="10" cy="49.2" cx="50" style="fill: rgb(250, 72, 120); animation-play-state: running; animation-delay: 0s;"></circle></g></g></g></g></g><metadata xmlns:d="https://loading.io/stock/" style="animation-play-state: running; animation-delay: 0s;"><d:name style="animation-play-state: running; animation-delay: 0s;">broadcast</d:name><d:tags style="animation-play-state: running; animation-delay: 0s;">podcast,radio,signal,on air,radio,wifi,broadcast,web application</d:tags><d:license style="animation-play-state: running; animation-delay: 0s;">pro</d:license><d:slug style="animation-play-state: running; animation-delay: 0s;">kx4vj4</d:slug></metadata></g></g><style id="spin-5a0a36df-30ea-425e-a2d5-923adad0c22b" data-anikit="">@keyframes spin-5a0a36df-30ea-425e-a2d5-923adad0c22b
{
  0% {
    animation-timing-function: cubic-bezier(0.5856,0.0703,0.4143,0.9297);
    transform: rotate(0deg);
  }
  100% {
    transform: rotate(360deg);
  }
}</style><!-- [ldio] generated by https://loading.io/ --></svg>